<svg width="101" height="100" viewBox="0 0 101 100" fill="none" xmlns="http://www.w3.org/2000/svg">
<path d="M55.141 0.00615177C58.7895 -0.00784887 62.4381 0.0288205 66.0856 0.116148L67.0556 0.151147C68.1756 0.191146 69.2805 0.241144 70.6155 0.301142C75.9353 0.551133 79.5652 1.39111 82.7501 2.62606C86.05 3.89602 88.8299 5.61596 91.6098 8.39587C94.1515 10.8938 96.1187 13.9154 97.3746 17.2506C98.6095 20.4355 99.4495 24.0703 99.6995 29.3901C99.7595 30.7201 99.8095 31.8301 99.8495 32.95L99.8795 33.92C99.9683 37.5658 100.007 41.2127 99.9945 44.8596L99.9995 48.5895V55.1393C100.012 58.7878 99.9735 62.4364 99.8845 66.0839L99.8545 67.0539C99.8145 68.1738 99.7645 69.2788 99.7045 70.6137C99.4545 75.9336 98.6045 79.5634 97.3746 82.7483C96.1229 86.087 94.1552 89.1111 91.6098 91.608C89.1097 94.1495 86.0865 96.1166 82.7501 97.3728C79.5652 98.6078 75.9353 99.4478 70.6155 99.6978C69.2805 99.7578 68.1756 99.8078 67.0556 99.8478L66.0856 99.8778C62.4381 99.9666 58.7896 100.005 55.141 99.9928L51.4111 99.9977H44.8664C41.2178 100.01 37.5692 99.9717 33.9217 99.8827L32.9518 99.8528C31.7649 99.8097 30.5782 99.7597 29.3919 99.7028C24.0721 99.4528 20.4422 98.6028 17.2523 97.3728C13.9158 96.1196 10.8937 94.1521 8.3976 91.608C5.85291 89.1095 3.88387 86.086 2.6278 82.7483C1.39284 79.5634 0.552866 75.9336 0.302874 70.6137C0.247191 69.4274 0.197192 68.2407 0.15288 67.0539L0.127881 66.0839C0.0357022 62.4364 -0.00596753 58.7879 0.00288491 55.1393V44.8596C-0.0110694 41.2128 0.0255999 37.5659 0.112882 33.92L0.14788 32.95C0.187879 31.8301 0.237877 30.7201 0.297875 29.3901C0.547866 24.0653 1.38784 20.4405 2.6228 17.2506C3.87962 13.9138 5.85251 10.893 8.4026 8.40087C10.897 5.85471 13.9172 3.88388 17.2523 2.62606C20.4422 1.39111 24.0671 0.551133 29.3919 0.301142L32.9518 0.151147L33.9217 0.126149C37.5675 0.0340157 41.2144 -0.00765399 44.8614 0.0011523L55.141 0.00615177ZM50.0012 25.0053C46.6888 24.9585 43.4002 25.5704 40.3264 26.8056C37.2526 28.0408 34.4549 29.8745 32.096 32.2003C29.7371 34.5261 27.8639 37.2976 26.5854 40.3536C25.3069 43.4096 24.6485 46.6893 24.6485 50.002C24.6485 53.3146 25.3069 56.5943 26.5854 59.6503C27.8639 62.7063 29.7371 65.4778 32.096 67.8036C34.4549 70.1294 37.2526 71.9631 40.3264 73.1983C43.4002 74.4335 46.6888 75.0454 50.0012 74.9986C56.6314 74.9986 62.99 72.3648 67.6783 67.6765C72.3665 62.9883 75.0003 56.6296 75.0003 49.9995C75.0003 43.3693 72.3665 37.0106 67.6783 32.3224C62.99 27.6341 56.6314 25.0053 50.0012 25.0053ZM50.0012 35.005C51.9936 34.9682 53.9735 35.3289 55.825 36.066C57.6765 36.803 59.3625 37.9016 60.7847 39.2975C62.2069 40.6935 63.3366 42.3589 64.1079 44.1964C64.8792 46.0338 65.2767 48.0066 65.277 49.9994C65.2773 51.9922 64.8806 53.9651 64.1099 55.8028C63.3392 57.6406 62.21 59.3063 60.7883 60.7028C59.3666 62.0992 57.6809 63.1984 55.8296 63.936C53.9783 64.6736 51.9987 65.035 50.0062 64.9989C46.0281 64.9989 42.2129 63.4186 39.3999 60.6057C36.587 57.7927 35.0067 53.9776 35.0067 49.9995C35.0067 46.0213 36.587 42.2062 39.3999 39.3932C42.2129 36.5803 46.0281 35 50.0062 35L50.0012 35.005ZM76.2503 17.5056C74.6373 17.5701 73.1119 18.2563 71.9935 19.4203C70.8751 20.5844 70.2504 22.1361 70.2504 23.7503C70.2504 25.3646 70.8751 26.9163 71.9935 28.0803C73.1119 29.2444 74.6373 29.9306 76.2503 29.9951C77.9078 29.9951 79.4975 29.3367 80.6696 28.1646C81.8416 26.9925 82.5001 25.4029 82.5001 23.7453C82.5001 22.0878 81.8416 20.4981 80.6696 19.3261C79.4975 18.154 77.9078 17.4956 76.2503 17.4956V17.5056Z" fill="#121212"/>
</svg>
