<svg width="125" height="100" viewBox="0 0 125 100" fill="none" xmlns="http://www.w3.org/2000/svg">
<path d="M106.25 0H18.75C13.7772 0 9.00806 1.97544 5.49175 5.49175C1.97544 9.00806 0 13.7772 0 18.75V81.25C0 86.2228 1.97544 90.9919 5.49175 94.5083C9.00806 98.0246 13.7772 100 18.75 100H106.25C111.223 100 115.992 98.0246 119.508 94.5083C123.025 90.9919 125 86.2228 125 81.25V18.75C125 13.7772 123.025 9.00806 119.508 5.49175C115.992 1.97544 111.223 0 106.25 0ZM106.25 12.5L65.625 40.4375C64.6749 40.9861 63.5971 41.2748 62.5 41.2748C61.4029 41.2748 60.3251 40.9861 59.375 40.4375L18.75 12.5H106.25Z" fill="#121212"/>
</svg>
