<?xml-stylesheet href="main.css" type="text/css"?>
<svg width="124" height="100" viewBox="0 0 124 100" fill="none" xmlns="http://www.w3.org/2000/svg">
<path d="M123.059 11.7647C118.529 13.8235 113.647 15.1765 108.588 15.8235C113.765 12.7059 117.765 7.76471 119.647 1.82353C114.765 4.76471 109.353 6.82353 103.647 8C99 2.94118 92.4706 0 85.0588 0C71.2353 0 59.9412 11.2941 59.9412 25.2353C59.9412 27.2353 60.1765 29.1765 60.5882 31C39.6471 29.9412 21 19.8824 8.58824 4.64706C6.41176 8.35294 5.17647 12.7059 5.17647 17.2941C5.17647 26.0588 9.58824 33.8235 16.4118 38.2353C12.2353 38.2353 8.35294 37.0588 4.94118 35.2941V35.4706C4.94118 47.7059 13.6471 57.9412 25.1765 60.2353C21.4749 61.2483 17.5888 61.3892 13.8235 60.6471C15.4212 65.6616 18.5502 70.0495 22.7707 73.1937C26.9912 76.338 32.0909 78.0805 37.3529 78.1765C28.4331 85.2379 17.3764 89.0548 6 89C4 89 2 88.8823 0 88.6471C11.1765 95.8235 24.4706 100 38.7059 100C85.0588 100 110.529 61.5294 110.529 28.1765C110.529 27.0588 110.529 26 110.471 24.8823C115.412 21.3529 119.647 16.8824 123.059 11.7647Z" fill="#121212"/>
</svg>
