<svg width="100" height="100" viewBox="0 0 100 100" fill="none" xmlns="http://www.w3.org/2000/svg">
<path d="M50 0C77.615 0 100 22.385 100 50C100 77.6149 77.615 99.9999 50 99.9999C41.1639 100.014 32.4833 97.6758 24.8501 93.2249L0.0200703 99.9999L6.78007 75.1599C2.32553 67.5243 -0.0146919 58.84 6.94012e-05 50C6.94012e-05 22.385 22.3851 0 50 0ZM32.96 26.5L31.96 26.54C31.3127 26.5794 30.6799 26.7495 30.1 27.04C29.5577 27.3471 29.0625 27.7311 28.6301 28.18C28.0301 28.745 27.6901 29.235 27.3251 29.71C25.4757 32.1145 24.4799 35.0665 24.4951 38.1C24.5051 40.55 25.1451 42.935 26.1451 45.165C28.1901 49.675 31.555 54.45 35.995 58.875C37.065 59.94 38.115 61.01 39.245 62.005C44.762 66.8623 51.3363 70.3652 58.445 72.235L61.285 72.67C62.21 72.72 63.135 72.65 64.065 72.605C65.5212 72.5298 66.9431 72.1355 68.23 71.45C68.8848 71.1127 69.5238 70.7456 70.145 70.35C70.145 70.35 70.36 70.21 70.77 69.9C71.445 69.4 71.86 69.045 72.42 68.46C72.835 68.03 73.195 67.525 73.47 66.95C73.86 66.135 74.25 64.58 74.41 63.285C74.53 62.295 74.495 61.755 74.48 61.42C74.46 60.885 74.015 60.33 73.53 60.095L70.62 58.79C70.62 58.79 66.27 56.895 63.61 55.685C63.3317 55.5634 63.0334 55.4939 62.73 55.48C62.3879 55.4448 62.0423 55.4833 61.7163 55.5928C61.3903 55.7024 61.0915 55.8804 60.84 56.115C60.815 56.105 60.48 56.39 56.865 60.77C56.6575 61.0488 56.3717 61.2595 56.044 61.3752C55.7164 61.491 55.3616 61.5066 55.025 61.42C54.6993 61.3326 54.3802 61.2223 54.07 61.09C53.45 60.83 53.235 60.73 52.81 60.55C49.9404 59.2977 47.2835 57.6057 44.935 55.535C44.305 54.985 43.72 54.385 43.12 53.805C41.153 51.9211 39.4387 49.79 38.02 47.465L37.725 46.99C37.5132 46.6708 37.3418 46.3265 37.215 45.965C37.025 45.23 37.52 44.64 37.52 44.64C37.52 44.64 38.735 43.31 39.3 42.59C39.85 41.89 40.315 41.21 40.615 40.725C41.205 39.775 41.39 38.8 41.08 38.045C39.68 34.625 38.23 31.22 36.74 27.84C36.445 27.17 35.57 26.69 34.775 26.595C34.505 26.565 34.235 26.535 33.965 26.515C33.2936 26.4816 32.6207 26.4883 31.95 26.535L32.955 26.495L32.96 26.5Z" fill="#121212"/>
</svg>
